# xmcd CD database file
#
# Track frame offsets:
#	150
#	20333
#	42111
#	56091
#	74777
#	90605
#	104807
#	122196
#	136648
#	150489
#	165161
#	181606
#
# Disc length: 2571 seconds
#
# Revision: 0
# Processed by: cddbd v1.5.2PL0 Copyright (c) Steve Scherf et al.
# Submitted via: CDex 1.51
#
DISCID=970a090c
DTITLE=EARL KING - ROOMFUL OF BLUES - Glazed
DYEAR=1986
DGENRE=Blues
TTITLE0=It All Went Down The Drain
TTITLE1=Your Love Was Never There
TTITLE2=Everybody's Got To Cry Sometime
TTITLE3=Love Rent
TTITLE4=Three Can Play The Game
TTITLE5=Iron Cupld
TTITLE6=Somebody's Got A Tall
TTITLE7=I Met A Stranger
TTITLE8=Mardi Gras In New Orleans
TTITLE9=There's Been Some Lonely,Lonely Nights
TTITLE10=One Step Beyond Love
TTITLE11=Don't Leave Me Here To Cry
EXTD=YEAR: 1986
EXTT0=
EXTT1=
EXTT2=
EXTT3=
EXTT4=
EXTT5=
EXTT6=
EXTT7=
EXTT8=
EXTT9=
EXTT10=
EXTT11=
PLAYORDER=
